<?xml version="1.0" encoding="UTF-8" standalone="no"?>
<svg
   xmlns:dc="http://purl.org/dc/elements/1.1/"
   xmlns:cc="http://creativecommons.org/ns#"
   xmlns:rdf="http://www.w3.org/1999/02/22-rdf-syntax-ns#"
   xmlns:svg="http://www.w3.org/2000/svg"
   xmlns="http://www.w3.org/2000/svg"
   id="svg4939"
   version="1.1"
   viewBox="0 0 24 24"
   height="24"
   width="24">
  <defs
     id="defs4933" />
  <metadata
     id="metadata4936">
    <rdf:RDF>
      <cc:Work
         rdf:about="">
        <dc:format>image/svg+xml</dc:format>
        <dc:type
           rdf:resource="http://purl.org/dc/dcmitype/StillImage" />
        <dc:title></dc:title>
      </cc:Work>
    </rdf:RDF>
  </metadata>
  <g
     transform="translate(0,-290.64997)"
     id="layer1">
    <g
       transform="translate(-27.625,-1.0625)"
       id="g2600">
      <rect
         style="fill:#44839a;fill-opacity:1;stroke:none;stroke-width:0.50247091;stroke-linecap:round;stroke-linejoin:round;stroke-miterlimit:4;stroke-dasharray:none;stroke-dashoffset:0;stroke-opacity:1;paint-order:normal"
         id="rect2587"
         width="18.41518"
         height="18.325893"
         x="30.34375"
         y="294.53836"
         rx="8.4151783"
         ry="8.5084496" />
      <path
         style="fill:#ffffff;fill-opacity:1;stroke:none;stroke-width:1.00157475;stroke-linecap:butt;stroke-linejoin:miter;stroke-miterlimit:4;stroke-dasharray:none;stroke-opacity:1"
         d="m 10.267857,311.6589 0.04464,-1.875 c -0.7428969,10e-4 -1.0795467,-0.48693 -1.081053,-1.13895 -0.00151,-0.65202 0.4843593,-1.01498 0.824693,-1.03153 l 4.46e-4,-0.34101 c -0.788027,-0.24269 -0.4348132,-0.82653 -0.2851032,-1.07278 -2.1133574,1.46091 -5.7058057,0.0337 -5.9802364,-3.02404 -0.2744307,-3.05778 2.3762689,-4.70208 4.3337507,-4.26223 -0.1570427,-1.65901 0.7709529,-3.90506 3.4165969,-4.10711 2.645644,0.20205 3.57364,2.4481 3.416597,4.10711 1.957482,-0.43985 4.608181,1.20445 4.333751,4.26223 -0.274431,3.05774 -3.866879,4.48495 -5.980237,3.02404 0.14971,0.24625 0.502924,0.83009 -0.285103,1.07278 l 4.46e-4,0.34101 c 0.340334,0.0165 0.826203,0.37951 0.824693,1.03153 -0.0015,0.65202 -0.338156,1.13995 -1.081053,1.13895 l 0.04464,1.875 -1.273734,0.0212 z"
         id="path2589"
         transform="translate(28,1.25)" />
      <path
         style="fill:#44839a;fill-opacity:1;stroke:none;stroke-width:1px;stroke-linecap:butt;stroke-linejoin:miter;stroke-opacity:1"
         d="m 10.341437,302.7065 -0.320408,0.12153 c -0.01563,1.29687 -1.3760124,2.15706 -2.4085826,2.08817 -1.0325702,-0.0689 -2.0293396,-1.27093 -1.9997863,-2.26495 0.029553,-0.99402 1.043052,-2.06442 1.9677511,-2.13504 0.9246991,-0.0706 1.9213362,0.77607 1.9213362,0.77607 l 1.3700196,-1.40316 c -0.640625,-0.52344 -0.850738,-0.96768 -0.850738,-1.64624 0,-0.67856 0.645122,-1.54155 1.535747,-1.56889 v 4.22054 c -0.932479,0.0442 -1.36258,0.50707 -1.5909898,1.138 z m 2.430678,0 0.320408,0.12153 c 0.01563,1.29687 1.376012,2.15706 2.408583,2.08817 1.03257,-0.0689 2.029339,-1.27093 1.999786,-2.26495 -0.02955,-0.99402 -1.043052,-2.06442 -1.967751,-2.13504 -0.924699,-0.0706 -1.921336,0.77607 -1.921336,0.77607 l -1.37002,-1.40316 c 0.640625,-0.52344 0.850738,-0.96768 0.850738,-1.64624 0,-0.67856 -0.645122,-1.54155 -1.535747,-1.56889 v 4.22054 c 0.932479,0.0442 1.36258,0.50707 1.59099,1.138 z"
         id="path2593"
         transform="translate(28,1.25)" />
    </g>
  </g>
</svg>
