<?xml version="1.0" encoding="UTF-8" standalone="no"?>
<svg
   xmlns:dc="http://purl.org/dc/elements/1.1/"
   xmlns:cc="http://creativecommons.org/ns#"
   xmlns:rdf="http://www.w3.org/1999/02/22-rdf-syntax-ns#"
   xmlns:svg="http://www.w3.org/2000/svg"
   xmlns="http://www.w3.org/2000/svg"
   id="svg4939"
   version="1.1"
   viewBox="0 0 24 24"
   height="24"
   width="24">
  <defs
     id="defs4933" />
  <metadata
     id="metadata4936">
    <rdf:RDF>
      <cc:Work
         rdf:about="">
        <dc:format>image/svg+xml</dc:format>
        <dc:type
           rdf:resource="http://purl.org/dc/dcmitype/StillImage" />
        <dc:title></dc:title>
      </cc:Work>
    </rdf:RDF>
  </metadata>
  <g
     transform="translate(0,-290.64997)"
     id="layer1">
    <g
       transform="matrix(0.0345008,0,0,0.0345008,27.690187,285.3995)"
       id="g2733">
      <path
         id="path2739"
         d="m -462.47393,216.45082 c -10.34144,-1.94454 -19.93764,8.51941 -19.93764,23.28026 -1.67938,9.54594 8.02986,20.22363 19.52035,20.22363 11.22532,0.17678 20.62538,-6.89374 21.33249,-19.09133 -0.86475,-11.41189 -1.46126,-22.37395 -20.9152,-24.41256 z m 3.37589,203.37456 c -51.17327,-0.61889 -106.38147,2.82153 -156.38868,13.45507 -3.55436,68.85207 -3.46506,141.2213 3.49921,209.91125 4.06856,46.36393 27.83734,99.11759 71.80772,120.81685 37.35446,19.21105 80.83549,23.35459 121.38922,15.03645 42.27436,-8.85423 77.18994,-46.34565 90.60752,-86.23203 23.84263,-67.05869 16.12873,-139.37939 17.02033,-209.16393 -3.97921,-16.22745 8.7829,-50.78535 -15.13707,-52.76873 -42.82447,-10.0092 -89.0038,-11.3332 -132.79825,-11.05493 z"
         style="fill:#0061b0" />
      <path
         id="path2741"
         d="m -405.9375,754.10224 c -3.025,-0.14933 -15.175,-0.76845 -27,-1.37581 -15.1322,-0.77722 -32.60412,-0.81228 -58.99153,-0.11837 -20.62035,0.54225 -37.62867,0.84878 -37.79627,0.68118 -0.16761,-0.16761 0.16304,-4.03533 0.73477,-8.59495 0.57172,-4.55962 1.33613,-13.83879 1.69867,-20.6204 0.65917,-12.33018 0.65917,-12.33018 3.75676,-12.40047 1.70368,-0.0386 3.99393,-0.42022 5.08945,-0.84792 1.20066,-0.46875 3.38451,-0.19574 5.49792,0.6873 8.06424,3.36945 22.26716,-0.74194 28.98182,-8.38952 1.55864,-1.77519 4.34016,-3.98818 6.18115,-4.91776 8.41063,-4.24679 12.88455,-11.31011 12.77697,-20.17197 -0.0386,-3.18441 -0.41375,-6.66773 -0.83354,-7.74071 -0.52425,-1.33995 -0.0325,-3.02771 1.57028,-5.38955 1.28345,-1.89127 2.35241,-3.93838 2.37547,-4.54913 0.023,-0.61075 0.90077,0.46455 1.95048,2.38955 1.60254,2.93879 1.81535,4.78811 1.32721,11.53331 -0.4981,6.88295 -0.28465,8.61489 1.4906,12.09468 2.27356,4.45655 7.42194,9.41476 12.45329,11.9933 1.78007,0.91229 4.74735,3.41122 6.59395,5.5532 5.25863,6.09979 10.28896,8.275 19.19973,8.30233 5.18546,0.0159 8.28931,-0.46293 9.89,-1.52576 2.11784,-1.40619 2.80375,-1.39018 7.44282,0.17374 3.98688,1.34405 5.17366,2.23397 5.39966,4.04894 0.15932,1.27944 1.08589,10.76376 2.05905,21.07626 1.9898,21.08571 3.44386,18.86345 -11.84871,18.10853 z m -104.76533,-48.85585 c -1.79594,-0.78046 -3.51795,-2.07731 -3.82669,-2.88188 -0.47794,-1.24549 -1.03288,-1.19181 -3.73466,0.36127 -6.63142,3.81195 -14.37843,3.39753 -20.06205,-1.07321 -2.64983,-2.08435 -2.64983,-2.08435 3.61945,-6.197 5.5847,-3.66356 6.98238,-4.13201 12.79968,-4.28998 7.98838,-0.21694 15.38296,-3.18365 20.08786,-8.05927 1.85996,-1.92745 5.51548,-4.42633 8.12338,-5.55308 12.06507,-5.21271 17.50182,-19.50894 10.04665,-26.41816 -2.51643,-2.33214 -8.28829,-3.35465 -8.28829,-1.46829 0,0.50769 1.40634,2.32941 3.12519,4.04827 2.71705,2.71705 3.0568,3.63517 2.60144,7.0301 -0.63487,4.73333 -3.85771,9.49785 -7.80547,11.53932 -2.77858,1.43686 -2.92116,1.40851 -2.92116,-0.58083 0,-2.93161 -1.79628,-5.95994 -3.53518,-5.95994 -1.06204,0 -1.46482,1.19669 -1.46482,4.35212 0,5.69282 -3.21065,10.48836 -8.96996,13.39788 -7.43335,3.75521 -14.03004,2.90983 -14.03004,-1.79797 0,-4.75043 -1.73039,-4.27742 -5.41318,1.47971 -4.15804,6.50006 -9.31967,9.56826 -16.09664,9.56826 -12.71551,0 -19.26028,-11.52517 -12.25062,-21.57303 1.50676,-2.15983 3.74752,-5.18509 4.97947,-6.7228 2.08043,-2.59678 2.13259,-2.98835 0.73257,-5.5 -0.82903,-1.48729 -3.85729,-3.97023 -6.72946,-5.51764 -2.87218,-1.54741 -5.22214,-3.48949 -5.22214,-4.31574 0,-4.81695 4.05723,-6.72475 13.82243,-6.49963 5.10917,0.11779 5.36502,0.006 4.85718,-2.12341 -0.29485,-1.23626 -0.84447,-4.38525 -1.22139,-6.99775 -0.63106,-4.37399 -0.9072,-4.75 -3.48843,-4.75 -1.54172,0 -2.98205,0.53678 -3.20074,1.19285 -0.48692,1.46075 -13.61341,2.15133 -15.74284,0.82822 -1.24386,-0.77286 -1.11213,-1.30071 0.84431,-3.38325 1.84256,-1.96131 2.24748,-3.35054 1.9738,-6.77185 -0.34432,-4.30432 -0.34432,-4.30432 4.50993,-5.1258 11.59679,-1.96249 21.71444,4.67045 28.83217,18.90183 4.65902,9.31539 7.75849,12.27267 13.69766,13.06928 4.15361,0.55711 9.10028,-1.43527 11.30522,-4.55342 0.72088,-1.01946 2.98495,-2.16493 5.03126,-2.5455 7.59596,-1.41268 12.26375,-8.57813 9.80348,-15.04914 -1.31512,-3.45902 -2.67947,-2.56221 -3.50116,2.30138 -1.02739,6.08106 -8.96795,10.96138 -9.70333,5.96373 -0.55425,-3.7667 -2.35322,-3.02096 -3.5554,1.47385 -0.81957,3.06427 -1.917,4.67425 -3.75794,5.51304 -5.7551,2.6222 -9.03235,0.72999 -13.60965,-7.85791 -1.75677,-3.29604 -5.831,-8.87048 -9.05383,-12.38764 -5.39094,-5.88325 -5.77725,-6.61169 -4.82905,-9.10564 2.82534,-7.43122 -3.23256,-15.46403 -11.66211,-15.46403 -3.29298,0 -2.58282,2.16054 1.02752,3.12609 4.12681,1.10368 5.62091,2.77733 5.62091,6.29635 0,4.8254 -1.21066,5.39873 -10.33409,4.89388 -6.11445,-0.33835 -9.83414,0.0262 -14.80636,1.45125 -5.81931,1.66778 -6.96922,1.73086 -9.29909,0.51011 -1.7448,-0.91419 -2.49145,-1.97469 -2.17223,-3.08534 1.20737,-4.20074 10.51912,-47.19126 11.14241,-51.44234 0.7496,-5.11249 0.95847,-5.22596 7.59842,-4.12778 3.62907,0.60021 3.62907,0.60021 4.3412,10.64486 0.39167,5.52455 0.96552,10.70497 1.27522,11.51204 0.5557,1.44813 10.16238,6.21846 12.53303,6.22345 0.67182,0.001 3.90779,1.62236 7.19104,3.60209 5.96956,3.59952 5.96956,3.59952 20,-3.44726 7.71675,-3.87573 16.16795,-7.94636 18.78045,-9.04586 2.6125,-1.09949 4.75,-2.45704 4.75,-3.01677 0,-0.55972 -1.9125,-1.50014 -4.25,-2.08981 -6.13636,-1.548 -17.53826,-5.68128 -28.95159,-10.4952 -9.92999,-4.18827 -9.92999,-4.18827 -1.6142,-5.35029 14.05964,-1.96465 18.46952,-1.59208 26.45554,2.23512 7.39476,3.54385 10.45457,3.51868 8.53387,-0.0702 -1.38447,-2.58689 -9.1065,-6.64599 -17.67362,-9.29017 -5.86937,-1.81154 -9.45712,-2.1611 -22.21264,-2.16424 -8.36696,-0.002 -17.25721,0.30286 -19.75611,0.6776 -2.49891,0.37473 -7.05954,0.36697 -10.13474,-0.0172 -5.59128,-0.69859 -5.59128,-0.69859 -5.17213,-17.86446 0.23052,-9.44124 0.74758,-17.88847 1.14902,-18.77164 0.54499,-1.199 2.80666,-1.76781 8.92824,-2.24545 8.1047,-0.63237 8.22116,-0.60832 10.19429,2.10576 5.00813,6.8888 13.14396,11.68609 21.84013,12.87803 3.45613,0.47372 5.64961,1.56277 8.4189,4.17993 3.60158,3.40371 14.87968,9.30473 20.46023,10.70536 2.28489,0.57347 2.84683,1.46389 3.78948,6.0046 1.08934,5.24733 5.77267,13.07112 8.43622,14.09322 1.05324,0.40417 1.239,2.29543 0.82242,8.37317 -0.53652,7.82771 -0.52279,7.88351 4.61476,18.75316 9.26278,19.59752 9.32611,26.04721 0.34819,35.45962 -4.62219,4.84588 -5.62626,6.51818 -5.62626,9.37067 0,4.88599 3.1564,7.78777 8.6202,7.92485 3.88958,0.0976 4.47625,0.46295 6.51128,4.05504 1.2301,2.17129 2.96652,6.12027 3.85871,8.77551 1.49242,4.44156 1.49345,5.16476 0.0129,9.04144 -0.88508,2.31754 -2.88615,5.74326 -4.44682,7.6127 -2.83759,3.39897 -2.83759,3.39897 -0.49695,6.84811 4.10737,6.05255 2.45827,13.45462 -4.22484,18.96341 -3.81395,3.14378 -3.81395,3.14378 -5.10918,-0.57479 -0.71237,-2.04522 -1.30199,-3.83108 -1.31027,-3.96858 -0.008,-0.1375 -0.69006,-0.25 -1.51506,-0.25 -1.0792,0 -1.5,1.10388 -1.5,3.9349 0,7.58657 -3.46858,12.92985 -10.5,16.17506 -4.76798,2.20056 -8.82868,2.32078 -13.26533,0.39272 z m 84.26533,-0.38341 c -2.2,-1.01025 -4.77034,-2.70433 -5.71186,-3.76464 -2.56507,-2.88867 -4.78814,-8.842 -4.78814,-12.82251 0,-4.51407 -1.68542,-4.52926 -3.56445,-0.0321 -0.80431,1.925 -1.72438,3.5 -2.0446,3.5 -2.01748,0 -6.9442,-4.99648 -8.58563,-8.70719 -2.1925,-4.95653 -1.80452,-8.75281 1.2976,-12.69652 1.96463,-2.49763 1.96463,-2.49763 -1.69738,-7.59489 -4.69564,-6.53599 -5.33929,-11.50528 -2.47593,-19.11538 2.55914,-6.80155 4.88804,-9.08112 9.56792,-9.36525 4.84702,-0.29428 8.50247,-3.85471 8.50247,-8.28146 0,-2.82104 -0.93557,-4.31099 -5.40114,-8.6017 -9.29912,-8.93496 -9.52283,-16.22054 -1.03364,-33.66252 5.78431,-11.88451 6.92061,-16.45663 5.61328,-22.58626 -1.01561,-4.7619 -1.00756,-4.7851 3.33846,-9.61892 3.25525,-3.62062 4.67144,-6.25271 5.60232,-10.41232 0.99553,-4.44848 1.76158,-5.77522 3.81326,-6.60424 9.4821,-3.83144 17.36907,-8.02731 20.69637,-11.01048 2.83809,-2.54456 5.20534,-3.66595 8.87109,-4.20232 9.06381,-1.3262 18.43817,-7.24695 22.24528,-14.04988 0.78935,-1.41048 2.03483,-1.51939 9.26396,-0.81011 10.16894,0.99771 9.66899,-0.0872 10.12452,21.96965 0.3246,15.71703 0.3246,15.71703 -2.65458,16.58124 -1.63855,0.47532 -7.47918,0.57286 -12.97918,0.21676 -17.62423,-1.14109 -33.90158,-0.67718 -40.20949,1.14598 -12.64426,3.65453 -20.25947,8.43837 -18.93346,11.8939 0.50963,1.32806 1.54088,1.08529 6.87129,-1.61759 7.54529,-3.82599 16.11606,-4.62954 28.27166,-2.65062 8,1.30239 8,1.30239 -7.5,7.47018 -8.525,3.39228 -17.525,6.67655 -20,7.29838 -7.2968,1.83328 -8,2.10148 -8,3.05115 0,0.49765 2.3625,1.89508 5.25,3.10541 2.8875,1.21033 11.26206,5.29075 18.61012,9.06761 13.36013,6.86701 13.36013,6.86701 22.5,2.3731 5.02694,-2.47165 10.34426,-4.78004 11.81628,-5.12975 4.99309,-1.18621 5.9872,-3.4401 6.57211,-14.90061 0.44895,-8.79657 0.80638,-10.55718 2.1451,-10.56636 0.88352,-0.006 3.26338,-0.28498 5.28859,-0.61984 3.63676,-0.60132 3.69024,-0.56107 4.33302,3.26101 0.35794,2.12841 3.11178,15.01257 6.11963,28.63146 3.00785,13.61889 5.17445,25.23793 4.81466,25.82008 -1.46578,2.37168 -4.97124,2.56729 -11.39465,0.63581 -5.21898,-1.56931 -8.24482,-1.85258 -14.84712,-1.38995 -8.02327,0.5622 -8.32744,0.50383 -9.37692,-1.79951 -1.79961,-3.94974 -0.32161,-7.11452 4.16006,-8.90773 5.41981,-2.16857 5.28272,-4.05445 -0.24088,-3.31373 -3.09263,0.41472 -5.02942,1.44217 -7.11212,3.77292 -2.59845,2.90794 -2.81886,3.71969 -2.39262,8.81175 0.467,5.57884 0.44152,5.64072 -4.78042,11.60874 -2.88745,3.3 -6.88447,8.79483 -8.88227,12.21073 -3.91141,6.68788 -6.76624,9.28927 -10.19429,9.28927 -3.22304,0 -6.45736,-3.10271 -7.24407,-6.9493 -0.85921,-4.20104 -2.85027,-5.07005 -3.71574,-1.62174 -0.35491,1.41405 -1.23698,2.57102 -1.96015,2.57102 -2.19842,0 -7.46832,-5.04856 -7.46832,-7.15464 0,-1.08726 -0.49837,-2.90805 -1.10749,-4.0462 -1.54577,-2.88831 -2.85729,-0.59649 -2.8772,5.02776 -0.0191,5.39566 3.64104,9.51083 9.42412,10.59574 2.3235,0.43589 4.97827,1.88348 6.56057,3.57734 2.82878,3.02822 8.34501,4.63219 12.41635,3.61035 4.03889,-1.0137 8.18982,-5.26636 10.57805,-10.83727 6.53994,-15.25547 17.83968,-23.02264 30.5056,-20.96882 3.64332,0.59077 4.88875,1.20216 4.58998,2.25325 -1.54027,5.41875 -1.21953,7.69542 1.37121,9.7333 2.58436,2.03286 2.59888,2.10668 0.6223,3.16451 -2.35405,1.25985 -13.98769,0.54048 -15.48574,-0.95757 -0.54876,-0.54876 -2.19507,-0.99775 -3.65846,-0.99775 -2.463,0 -2.70757,0.39011 -3.29131,5.25 -1.09146,9.08691 -1.42116,8.60482 5.85609,8.56284 4.3077,-0.0249 7.32131,0.49795 8.92416,1.54818 2.61146,1.71109 4.46052,5.84273 2.85442,6.3781 -0.5405,0.18016 -3.41272,1.77642 -6.38269,3.54724 -7.12438,4.24782 -7.6621,7.41527 -2.34022,13.78515 2.01472,2.41146 4.06298,5.43617 4.55169,6.72158 3.47706,9.14535 -3.46457,18.20691 -13.94746,18.20691 -7.49313,0 -12.13016,-2.90159 -17.18146,-10.75117 -2.91534,-4.53036 -4.43689,-4.30785 -5.13669,0.75117 -0.32327,2.33699 -0.7051,2.49346 -5.8559,2.39975 -9.85588,-0.17933 -15.9005,-5.41372 -16.77622,-14.52751 -0.25749,-2.67973 -0.77091,-4.87224 -1.14093,-4.87224 -1.5438,0 -3.07277,2.58745 -3.07277,5.2 0,1.54 -0.43434,2.8 -0.9652,2.8 -1.85875,0 -8.34534,-6.49899 -9.68376,-9.70226 -1.97006,-4.71503 -1.72604,-5.8769 2.13099,-10.14617 1.91511,-2.1198 3.19011,-4.1461 2.83333,-4.50288 -1.54873,-1.54872 -5.69205,-0.42584 -8.39228,2.27439 -2.38837,2.38837 -2.92308,3.7694 -2.92308,7.54966 0,2.54462 0.65991,5.90271 1.46647,7.46242 1.90318,3.68034 10.15997,10.93298 13.36147,11.7365 1.37204,0.34436 3.80281,2.11607 5.40173,3.93714 4.56978,5.20469 12.5222,8.60097 20.52543,8.76588 5.0973,0.10504 7.48806,0.65628 9.74916,2.24786 1.64766,1.15978 4.5484,2.90234 6.44609,3.87236 3.45036,1.76367 3.45036,1.76367 0.73406,4.10014 -1.49397,1.28505 -4.62162,2.86184 -6.95036,3.50398 -3.64022,1.00378 -5.0565,0.88343 -10.09821,-0.85814 -5.86417,-2.02566 -5.86417,-2.02566 -9.38955,0.36673 -4.2525,2.88583 -9.20209,3.05756 -14.74629,0.51166 z m -54.83333,-76.78594 c -1.56025,-1.56025 -0.43861,-4.4055 2.67204,-6.77811 4.97808,-3.79696 8.64455,-11.21633 8.74224,-17.69055 0.081,-5.36467 0.081,-5.36467 1.97377,-1.36467 1.04106,2.2 1.90024,6.025 1.90929,8.5 0.0196,5.35612 -3.72803,14.02088 -7.07952,16.36835 -2.35361,1.64854 -6.98986,2.19295 -8.21782,0.96498 z m 30.27408,-3.03664 c -5.66075,-4.76321 -7.27746,-12.10248 -4.81775,-21.87087 1.50997,-5.99666 2.37514,-6.20559 2.38581,-0.57614 0.0108,5.6911 3.12975,12.07405 8.71057,17.82618 2.61076,2.69089 3.8367,4.73563 3.44745,5.75 -0.96347,2.51075 -6.11042,1.91321 -9.72608,-1.12917 z m -16.44075,-41.18133 c -5.29188,-1.37725 -9.42401,-4.06774 -11.03656,-7.18605 -1.87889,-3.63337 -2.97592,-11.75129 -2.07378,-15.34571 0.56277,-2.24224 1.17969,-2.5836 4.66923,-2.5836 2.21143,0 5.80926,-0.91241 7.99516,-2.02758 3.32488,-1.69622 4.33976,-1.82709 6.21017,-0.80078 1.22968,0.67474 5.61078,1.95466 9.73578,2.84428 7.22045,1.55719 7.54452,1.75138 8.69445,5.21002 1.40778,4.23416 0.35931,9.1647 -2.80403,13.18624 -4.18481,5.32012 -14.40209,8.52194 -21.39042,6.70318 z m -77.80833,-6.74344 c -4.29458,-1.38179 -8.06267,-3.17515 -8.37354,-3.98526 -0.89857,-2.34165 0.26019,-2.65608 3.53928,-0.9604 6.05185,3.12953 11.14259,0.76286 11.14259,-5.18015 0,-1.26988 0.56859,-2.52707 1.26354,-2.79375 0.69495,-0.26667 6.59441,1.487 13.1099,3.89705 11.84636,4.38191 11.84636,4.38191 3.20132,7.51005 -11.89667,4.30472 -14.66071,4.47976 -23.88309,1.51246 z m 153.30833,0.48563 c -5.05555,-1.38965 -17.17362,-6.01726 -16.78217,-6.40871 0.66324,-0.66324 22.31548,-8.42689 23.53217,-8.43772 0.6875,-0.006 1.25,0.86771 1.25,1.94183 0,3.37319 2.24991,7.07167 4.6717,7.6795 1.28086,0.32147 4.12871,-0.13567 6.32856,-1.01588 3.79568,-1.51873 3.99974,-1.50664 3.99974,0.23686 0,1.44444 -1.89117,2.40479 -8.84563,4.4919 -9.74139,2.92349 -9.22204,2.86801 -14.15437,1.51222 z m -61.48677,-24.38882 c -5.72205,-2.00341 -6.77235,-3.85645 -6.2337,-10.99814 0.51906,-6.88204 3.12428,-12.62794 7.69455,-16.97059 2.7049,-2.57018 3.92788,-3 8.53604,-3 4.77365,0 5.77765,0.38658 8.92393,3.43608 6.1182,5.92999 5.76049,12.97182 -1.06395,20.94465 -5.75735,6.72616 -11.45668,8.82884 -17.85687,6.588 z m -29.3336,-2.15049 c -5.57137,-2.74546 -8.54826,-7.63417 -8.94417,-14.68828 -0.27391,-4.88049 0.0791,-6.80467 1.73215,-9.44014 3.98615,-6.35534 14.40636,-8.00547 19.62046,-3.10708 6.58237,6.18382 8.30689,22.00529 2.90669,26.66726 -3.18627,2.7507 -10.34711,3.01639 -15.31513,0.56824 z m -20.9561,-23.28912 c -11.24991,-4.04825 -16.22756,-8.77944 -16.21694,-15.41398 0.017,-10.60265 11.5431,-17.14152 23.99341,-13.61169 4.2418,1.20261 11.49,6.89497 16.54876,12.99655 3.73091,4.5 3.73091,4.5 0.84108,4.76406 -9.56146,0.87368 -14.44055,3.71973 -17.03923,9.93925 -1.60111,3.83199 -1.29934,3.78276 -8.12708,1.32581 z m 74.99635,-2.51344 c -2.58672,-5.32425 -6.61558,-7.73366 -14.17685,-8.47828 -5.45698,-0.5374 -5.45698,-0.5374 1,-7.44303 7.51392,-8.03602 14.01328,-11.56991 21.30584,-11.5846 9.55388,-0.0192 16.87784,6.19936 17.05637,14.48216 0.0798,3.70219 -0.43606,4.94382 -3.26816,7.86619 -3.19609,3.29796 -11.65336,7.72155 -17.20122,8.99713 -2.26048,0.51974 -2.81898,0.065 -4.71598,-3.83957 z m -34.67625,-3.76568 c -2.9493,-5.07804 -10.30816,-14.42511 -16.92879,-21.50258 -5.72764,-6.12286 -5.94402,-6.53355 -4.13812,-7.85406 2.39283,-1.74967 3.14065,-1.74114 13.52328,0.15439 8.02999,1.46601 9.06966,1.44093 18.80205,-0.45343 10.88242,-2.11821 15.19795,-1.68963 15.19795,1.50933 0,0.90924 -2.8125,4.63822 -6.25,8.28664 -3.4375,3.64841 -8.68588,10.34063 -11.66307,14.87159 -2.97719,4.53097 -5.69266,8.23812 -6.03439,8.23812 -0.34173,0 -1.47074,-1.4625 -2.50891,-3.25 z m -72.50039,-9.03072 c -7.14036,-2.904 -11.18416,-8.37347 -11.81499,-15.98042 -0.38931,-4.69453 -0.11573,-5.71913 2.29061,-8.57891 2.81238,-3.34232 7.94027,-6.3861 12.67345,-7.52262 7.73708,-1.85782 24.56286,3.37439 32.63949,10.1497 3.3318,2.79497 3.3318,2.79497 -3.59659,2.85841 -12.54573,0.11488 -22.17551,7.74482 -22.21876,17.60456 -0.0142,3.22656 -0.33052,3.74571 -2.26645,3.71928 -1.2375,-0.0169 -4.70554,-1.0294 -7.70676,-2.25 z m 138.95676,-2.0714 c 0,-10.33957 -13.01365,-19.2337 -24.88896,-17.01027 -3.34935,0.62711 -3.50651,0.54992 -2.16856,-1.06514 7.04926,-8.50929 26.15275,-14.2182 36.89894,-11.02692 5.8168,1.7274 11.69364,6.7538 12.73155,10.88915 1.04951,4.18159 -1.93925,12.56284 -5.80751,16.28577 -3.30366,3.17954 -10.39057,6.2383 -14.51546,6.26498 -1.9909,0.0129 -2.25,-0.48662 -2.25,-4.33757 z m -177,-12.25252 c -9.92313,-2.65764 -14.97613,-7.40764 -18.49753,-17.38836 -2.11697,-6.00013 -0.68544,-10.66185 4.83732,-15.75256 5.52425,-5.09208 10.19341,-6.62064 20.16021,-6.59996 11.62685,0.0241 30.16946,6.50509 45,15.72827 4,2.48761 4,2.48761 -3.65787,1.91506 -7.05806,-0.52771 -8.16311,-0.33612 -14.10854,2.44609 -7.86804,3.68189 -11.93862,8.5192 -12.70215,15.09468 -0.44301,3.81514 -0.94744,4.69197 -3.03144,5.26938 -4.18334,1.15908 -12.19585,0.84188 -18,-0.7126 z m 207.75,0.88839 c -2.26405,-0.34298 -2.75,-0.92348 -2.75,-3.28507 0,-6.45464 -4.89155,-13.23406 -12.5,-17.32431 -3.21631,-1.72907 -5.71791,-2.15272 -12.76835,-2.16237 -10.55058,-0.0144 -10.38593,-0.24273 5.8803,-8.15325 14.27537,-6.94233 28.47499,-10.72792 36.9756,-9.85761 16.34167,1.67309 25.47278,12.19699 20.92193,24.11321 -4.89099,12.80686 -18.71573,19.25131 -35.75948,16.6694 z m -135.18964,-17.37669 c -5.8082,-4.37291 -10.56036,-8.35877 -10.56036,-8.85747 0,-1.36268 2.74217,-3.83298 5.07763,-4.57423 1.13618,-0.36061 5.20925,0.11469 9.05127,1.05623 8.98219,2.2012 14.53101,1.60724 23.8711,-2.55524 9.96796,-4.44229 15.2012,-4.42334 24.99407,0.0905 6.47596,2.98496 8.03307,3.31116 14.38402,3.01331 16.85739,-0.79059 19.48941,-0.64385 21.32054,1.18861 2.4262,2.42798 1.36893,3.84645 -8.78777,11.78986 -8.38607,6.55862 -8.38607,6.55862 -11.82536,4.22465 -5.17982,-3.51511 -7.73408,-3.78282 -17.41744,-1.82546 -9.79995,1.98093 -15.15379,2.13005 -21.7643,0.60622 -6.89348,-1.58906 -10.33886,-1.25799 -14.20385,1.36487 -3.57919,2.4289 -3.57919,2.4289 -14.13955,-5.52184 z m -25.06036,-16.01451 c -4.95,-2.67405 -11.74805,-5.85416 -15.10677,-7.06692 -7.18768,-2.5953 -7.34155,-3.83271 -1.16993,-9.40841 5.63812,-5.0937 10.11038,-6.75774 18.31235,-6.81368 5.75698,-0.0393 8.08752,0.46665 12.82339,2.78369 3.18325,1.55742 6.02785,3.45742 6.32133,4.22222 0.90673,2.36288 2.06822,1.54422 2.7172,-1.91516 0.61774,-3.29283 6.00133,-9.38468 10.17946,-11.51867 1.14236,-0.58346 4.32409,-1.35893 7.07049,-1.72325 6.39497,-0.84832 13.87812,2.17329 18.75734,7.574 3.42158,3.78728 3.42158,3.78728 5.75836,1.28529 8.19652,-8.776 20.43546,-10.42619 29.92051,-4.03422 2.83564,1.91094 6.90202,7.43896 8.21303,11.16517 0.1824,0.51843 1.96996,-0.307 3.97235,-1.8343 3.91879,-2.98901 11.32245,-5.60831 15.85231,-5.60831 4.9667,0 13.64595,3.98532 18.83021,8.64642 5.54641,4.9867 6.20692,6.8566 2.79837,7.92224 -1.2375,0.38689 -7.31319,3.08634 -13.50154,5.99878 -10.89904,5.12944 -11.28549,5.23188 -12.33552,3.26989 -0.59619,-1.114 -3.15351,-2.9409 -5.68293,-4.05978 -4.01013,-1.77388 -5.63158,-1.93198 -12.66448,-1.23491 -11.74054,1.16368 -13.58218,0.9526 -26.10772,-2.9923 -13.00269,-4.09518 -15.10231,-3.9732 -27.83993,1.61737 -7.35679,3.22892 -8.74948,3.30163 -23.72631,1.23883 -5.3973,-0.74338 -11.24364,1.52007 -13.17852,5.10216 -1.21305,2.24576 -1.21305,2.24576 -10.21305,-2.61615 z m -85.04972,-34.28775 c -0.20653,-0.60764 -1.49475,-5.5922 -2.86272,-11.07679 -1.7874,-7.16622 -2.16835,-10.16906 -1.35394,-10.6724 1.82074,-1.12527 26.79661,-5.67765 45.76638,-8.34188 72.82522,-10.22802 128.47559,-10.91789 200.5,-2.48552 24.79079,2.90242 59.62016,8.75862 61.14192,10.28038 0.91248,0.91248 -3.95698,20.87508 -5.20925,21.35562 -0.65474,0.25125 -8.10743,-0.89847 -16.56155,-2.55493 -47.61847,-9.33012 -106.27716,-13.68725 -152.11812,-11.29925 -37.78493,1.96834 -86.67806,7.64136 -117.0901,13.58583 -8.18842,1.60055 -11.95285,1.97319 -12.21262,1.20894 z m -14.8094,-53.36862 c -4.20248,-14.72011 -7.64088,-27.37019 -7.64088,-28.11129 0,-1.84069 4.95881,-0.84207 13.6736,2.75362 7.29513,3.00995 7.39853,3.18715 5.90604,10.12149 -0.75332,3.5 -0.75332,3.5 0.9633,1.14567 2.60068,-3.56682 10.45345,-8.14978 13.90284,-8.11387 14.23484,-6.2912 21.72459,-6.25304 42.88014,-15.29921 0.28959,-0.67792 2.61012,-3.84406 5.15673,-7.03586 4.63021,-5.80326 4.63021,-5.80326 9.82378,-2.08977 60.9115,12.60562 56.32777,8.32022 69.73256,-3.76777 10.08597,-9.07963 8.93549,-8.95435 16.95321,-1.8461 3.85429,3.41708 7.0078,6.38764 7.0078,6.60124 19.58034,7.43364 46.04578,3.59724 56.34319,7.31449 -0.33688,-1.08644 1.67163,-3.22732 6.33171,-6.74899 6.8251,-5.15781 6.8251,-5.15781 10.9479,-0.58076 2.26754,2.51738 4.709,5.67239 5.42547,7.01112 24.57309,8.58128 26.58651,10.19127 57.58079,16.45584 1.42225,-1.29963 14.36461,-6.17074 17.93476,-6.7501 3.30234,-0.5359 3.30234,-0.5359 0.74405,8.83409 -4.47536,16.39138 -13.17461,46.07006 -13.64032,46.53576 -0.24693,0.24694 -6.25672,-0.68344 -13.35508,-2.06751 -27.42017,-5.3465 -67.42407,-10.19128 -104.69328,-12.67916 -49.34643,-3.29408 -126.86592,2.1268 -180.61919,12.63056 -6.875,1.34343 -12.7741,2.44433 -13.10912,2.44646 -0.33501,0.002 -4.04751,-12.03985 -8.25,-26.75995 z m 13.07066,-26.85797 c -1.425,-1.42501 10.63352,-22.05121 19.80593,-33.87821 30.2185,-38.96405 75.90498,-54.82534 147.98253,-51.37611 29.72359,1.4224 49.85906,5.96986 70.04042,15.81815 20.77064,10.13584 37.41522,24.69086 50.3221,44.00467 6.98365,10.45032 14.38393,24.4735 13.42248,25.43496 -1.39124,1.39124 -3.71574,0.40915 -8.03925,-3.39656 -2.50864,-2.20819 -6.70049,-4.77471 -9.31523,-5.70338 -3.7054,-1.31604 -5.12311,-2.47083 -6.42707,-5.23511 -4.45511,-9.44446 -15.41255,-24.0938 -25.46623,-34.04662 -13.31212,-13.17855 -25.35199,-20.41003 -37.53722,-22.54588 -4,-0.70113 -4,-0.70113 0.47923,2.5947 7.07101,5.20287 14.66164,13.65867 21.50057,23.95118 8.39284,12.63112 15.85708,26.67973 15.15182,28.51759 -0.84415,2.19983 -3.23775,1.79859 -5.35918,-0.89837 -1.03,-1.30943 -3.98434,-4.72941 -6.5652,-7.59995 -4.69249,-5.21917 -4.69249,-5.21917 -13.61363,1.30408 -10.58029,7.73644 -11.33416,7.57309 -13.02993,-2.82335 -4.16353,-25.52573 -17.86297,-43.13441 -39.38759,-50.62714 -11.66398,-4.06024 -11.00118,-4.18968 -10.216,2.20036 1.10993,9.0331 4.37143,31.02351 6.81163,40.67181 2.33884,9.24748 2.15063,11.25497 -1.05515,11.25497 -0.76089,0 -5.19733,-3.39327 -9.85876,-7.54061 -9.7709,-8.69331 -7.64217,-8.93245 -20.12244,2.26057 -6.19553,5.55651 -7.13062,6.07712 -8.76663,4.88084 -1.76263,-1.28887 -1.72754,-1.76617 0.93524,-12.71996 3.45482,-14.21196 8.20855,-42.60164 7.28766,-43.52253 -1.13112,-1.13113 -12.69449,2.53413 -19.83868,6.2883 -7.44345,3.91142 -17.82699,13.96472 -22.2279,21.52096 -3.72011,6.38732 -6.57905,14.8087 -8.25461,24.31499 -2.09097,11.86312 -2.4883,11.99001 -12.91587,4.12465 -4.81777,-3.63396 -9.02845,-6.57677 -9.35708,-6.53957 -0.32862,0.0372 -3.45993,3.4122 -6.95845,7.5 -6.06917,7.09143 -8.30198,8.59578 -9.61203,6.47608 -0.90617,-1.46621 7.52788,-17.52494 15.30393,-29.13925 6.27906,-9.37838 16.50217,-20.50427 23.16905,-25.21504 2.5,-1.76649 2.5,-1.76649 -1.41767,-1.15119 -10.42774,1.63775 -24.17942,9.47606 -35.96166,20.49776 -8.12046,7.59629 -19.76071,22.82861 -24.80837,32.464 -3.3797,6.45143 -4.05224,7.13598 -8.58198,8.73511 -2.7032,0.95431 -6.96743,3.54181 -9.47607,5.75 -4.32691,3.8087 -6.64791,4.78789 -8.04271,3.3931 z m 131.55436,-114.89418 14.58941,-0.22529 0.44954,-17.25146 7.07053,-0.0137 0.1568,17.14448 16.77006,0.23465 0.71599,9.20028 -39.91586,-0.50895 z m 14.91134,-28.29421 c 0.62273,-8.07534 1.41823,-7.54501 -6.55863,-7.21967 -7.97686,0.32535 -8.06525,-0.47015 -8.0629,-4.51988 0.002,-4.04972 -0.26317,-4.58005 7.48718,-4.53033 7.75,0.0497 7.57323,0.58003 7.26109,-6.16994 -0.31214,-6.75 0.74852,-8.16421 4.215,-8.16421 3.46649,0 4.26198,1.59099 4.10763,8.34099 -0.15434,6.75 0.0224,5.33578 7.77244,5.28605 7.75,-0.0497 7.48483,1.01096 7.48483,5.09937 0,4.08843 -0.44194,5.14909 -7.69194,4.47245 -3.9875,-0.37215 -6.2327,0.17994 -6.71783,0.47065 -0.48512,0.2907 -1.20582,2.38589 -0.84532,6.70855 0.65545,7.85937 -4.16522,8.74326 -4.16522,8.74326 0,0 -4.90905,-0.44194 -4.28633,-8.51729 z"
         style="fill:#fbd500" />
      <path
         id="path2737"
         d="m -609.75163,387.24666 c -3.81853,-3.21308 -4.86064,-7.09985 -2.57945,-9.62054 3.84567,-4.24942 7.96917,-1.21038 7.10452,5.23605 -0.54984,4.09932 -0.54984,4.09932 2.5361,3.48213 1.69726,-0.33945 4.62433,-1.79057 6.50459,-3.22472 6.81364,-5.19702 9.33154,-12.69223 7.22026,-21.49306 -1.95385,-8.14453 -8.48754,-10.95346 -16.26045,-6.99061 -4.84251,2.46886 -4.70702,1.23997 0.36889,-3.34581 4.78414,-4.32218 11.75633,-7.54639 16.31871,-7.54639 2.96202,0 3.47086,-0.4972 6.06632,-5.92752 2.71226,-5.67472 3.15727,-6.07607 10.43387,-9.41041 4.18042,-1.91559 7.74466,-3.34181 7.92053,-3.16939 0.17587,0.17243 -0.61163,2.13919 -1.75,4.37058 -2.7551,5.40043 -2.63326,6.24379 1.2877,8.91329 1.83909,1.25211 4.38946,3.38961 5.66749,4.75 2.32368,2.47345 2.32368,2.47345 -1.95064,2.47345 -3.50496,0 -4.87016,0.59585 -7.58471,3.3104 -4.28881,4.28881 -6.11021,10.67482 -4.53971,15.91667 2.0072,6.69946 8.2675,12.46377 15.39526,14.17552 2.81989,0.67721 2.83947,0.64961 2.20539,-3.10966 -1.16232,-6.891 4.08915,-10.00101 6.44122,-3.81459 1.97467,5.19377 -3.15306,10.52166 -10.12638,10.52166 -4.37761,0 -11.23402,-3.46459 -14.50188,-7.32791 -1.47575,-1.74465 -3.83935,-5.64709 -5.25245,-8.67209 -2.56928,-5.5 -2.56928,-5.5 -3.20053,0 -0.3472,3.025 -1.3009,7.075 -2.11935,9 -4.9978,11.75485 -18.2374,17.70262 -25.6053,11.50295 z m 280.19804,0.58394 c -6.71349,-3.04872 -12.17738,-11.68566 -13.11019,-20.72369 -0.55854,-5.41177 -0.55854,-5.41177 -3.47012,0.36252 -3.60898,7.15737 -7.12543,10.98101 -12.3036,13.37843 -9.73077,4.50519 -18.58919,0.33977 -17.33288,-8.1503 0.47513,-3.21092 3.21457,-4.71188 5.35603,-2.93463 1.30751,1.08514 1.55708,2.37879 1.10093,5.70677 -0.58573,4.27339 -0.57072,4.2991 2.14303,3.67048 11.77843,-2.72837 18.66206,-13.74724 14.84006,-23.755 -2.32526,-6.08861 -5.71046,-8.94399 -11.39304,-9.60993 -4.71413,-0.55244 -4.71413,-0.55244 1.48961,-5.41652 6.20374,-4.86409 6.20374,-4.86409 3.75,-9.7063 -1.34956,-2.66323 -2.45374,-5.06365 -2.45374,-5.33427 0,-0.27062 3.4875,0.98348 7.75,2.7869 7.47313,3.16181 7.86808,3.49973 11.05516,9.4588 2.9841,5.57953 3.61551,6.18198 6.5,6.20181 4.56819,0.0314 10.85676,3.16434 16.1556,8.04864 2.51908,2.322 4.42775,4.37423 4.24148,4.56049 -0.18627,0.18627 -2.09062,-0.55453 -4.2319,-1.64621 -8.85231,-4.51317 -15.02089,-1.00267 -16.8227,9.57369 -1.3173,7.73234 3.30402,16.84564 10.37045,20.45066 6.0332,3.07791 7.12447,2.73446 6.36679,-2.00381 -0.98353,-6.15063 3.14332,-9.33436 7.04369,-5.43399 2.45259,2.45259 1.86978,5.33022 -1.82857,9.02857 -4.0225,4.0225 -8.63908,4.47362 -15.21609,1.48688 z m -199.35847,-13.06144 c -4.2167,-4.21671 -3.32597,-11.02545 1.44236,-11.02545 2.76821,0 3.93855,2.53279 2.96419,6.41496 -0.56141,2.23684 -0.32873,2.58504 1.72747,2.58504 3.97808,0 9.42373,-4.52257 12.23246,-10.15895 4.29139,-8.6117 2.90421,-17.46276 -3.31237,-21.13499 -3.79869,-2.24394 -11.87155,-2.23671 -15.10704,0.0135 -2.47251,1.7196 -2.47251,1.7196 -0.8836,-0.75 0.8739,-1.35828 3.68704,-4.04424 6.25144,-5.96881 3.62511,-2.72062 4.77308,-4.27814 5.15939,-7 0.97526,-6.87149 3.57245,-16.42737 4.64495,-17.09021 1.3014,-0.80431 12.73221,-2.63688 21.99999,-3.527 6.64468,-0.63819 6.64468,-0.63819 5.76572,4.06662 -0.48342,2.58764 -1.56103,7.00161 -2.39468,9.8088 -0.83364,2.8072 -1.51572,5.39753 -1.51572,5.75628 0,0.35876 2.55703,2.41338 5.6823,4.56583 5.68229,3.91355 5.68229,3.91355 0.88521,4.59974 -13.3123,1.90424 -17.10254,18.9566 -6.70335,30.15843 3.07546,3.31282 7.21943,5.66072 9.99102,5.66072 1.68774,0 1.88456,-0.52151 1.44201,-3.82092 -0.37028,-2.76068 -0.0466,-4.28684 1.16659,-5.5 4.57073,-4.57074 9.81942,2.18621 6.50658,8.37631 -1.43851,2.68788 -6.2092,4.94461 -10.45282,4.94461 -8.40404,0 -14.66262,-5.42635 -18.12501,-15.71484 -1.25074,-3.71658 -2.47267,-6.08866 -2.71539,-5.27129 -0.24273,0.81737 -1.05113,3.51113 -1.79645,5.98613 -3.46327,11.50054 -18.75261,20.12808 -24.85525,14.02544 z m 120.47456,0.12577 c -7.25979,-3.46769 -11.16039,-8.40898 -12.99869,-16.46676 -1.18278,-5.18446 -1.18278,-5.18446 -2.80511,0.34239 -3.17706,10.82342 -12.52941,17.9295 -21.93652,16.66774 -7.45752,-1.00026 -11.50235,-8.90253 -6.75562,-13.19827 1.69193,-1.53117 2.41244,-1.62758 4.626,-0.61901 2.39115,1.08948 2.57765,1.58755 2.11878,5.65866 -0.4593,4.07487 -0.313,4.46403 1.67822,4.46403 4.06046,0 11.12695,-5.44726 13.54421,-10.44066 5.74834,-11.87447 -0.42361,-25.55934 -11.52739,-25.55934 -2.73648,0 -2.74183,-0.0133 -0.84887,-2.10641 1.04775,-1.15852 3.55436,-2.94822 5.57025,-3.97709 3.66526,-1.87069 3.66526,-1.87069 1.78144,-8.09253 -1.0361,-3.42201 -2.17406,-8.15732 -2.5288,-10.5229 -0.60552,-4.03788 -0.50036,-4.30071 1.71856,-4.29517 2.52678,0.006 20.88942,2.61261 24.57779,3.48846 2.50569,0.595 4.63013,6.41005 5.81945,15.92906 0.53913,4.31503 1.20259,5.88931 2.83507,6.72715 2.79478,1.43436 7.53717,5.85822 8.82211,8.22956 0.96847,1.78729 0.90385,1.79963 -1.30856,0.25 -1.45085,-1.01622 -4.35251,-1.63013 -7.70483,-1.63013 -4.74163,0 -5.76461,0.38712 -8.65139,3.2739 -7.66185,7.66185 -4.16013,22.72703 6.57268,28.27718 5.13106,2.65337 6.46072,2.01586 6.06897,-2.90976 -0.38212,-4.80451 0.77932,-5.95578 4.58225,-4.54214 1.73195,0.6438 2.25,1.62413 2.25,4.25781 0,7.34141 -7.48532,10.62251 -15.5,6.79423 z"
         style="fill:#c90a02" />
      <path
         id="path2735"
         d="m -491.74884,786.23335 c -185.55363,-43.9027 -110.97335,-308.81707 -139.39765,-406.22794 -6.13126,-21.03106 -10.8867,-38.49935 -10.56764,-38.8184 0.31906,-0.31906 5.40961,0.81538 11.31234,2.52099 5.90274,1.7056 10.80759,2.97388 10.89969,2.8184 0.0921,-0.15548 1.6797,-3.20769 3.52802,-6.78269 20.99077,-40.60015 55.96059,-66.73918 101.53658,-75.89596 12.21741,-2.45463 25.16812,-4.10404 32.22377,-4.10404 2.90192,0 5.27623,-0.26597 5.27623,-0.59104 0,-0.32507 -1.50275,-2.34666 -3.33944,-4.49242 -5.89432,-6.88618 -7.184,-15.76975 -3.65768,-25.1947 2.2594,-6.03878 5.80431,-9.90862 11.10489,-12.12279 3.23434,-1.35105 3.67424,-1.99202 4.25,-6.19261 1.25012,-9.12062 1.65686,-8.66429 -7.35777,-8.25491 -8,0.3633 -8,0.3633 -8,-6.72874 0,-7.09205 0,-7.09205 8.14416,-6.62059 8.14416,0.47146 8.14416,0.47146 7.63352,-6.66537 -0.51064,-7.13683 -0.51064,-7.13683 5.85584,-7.13683 6.36648,0 6.36648,0 6.36648,7.13151 0,7.1315 0,7.1315 7.5,6.65018 7.5,-0.48132 7.5,-0.48132 7.5,6.77488 0,6.3753 -0.21245,7.21435 -1.75,6.91151 -0.9625,-0.18957 -4.5625,-0.59054 -8,-0.89104 -6.25,-0.54638 -6.25,-0.54638 -6.23899,2.68829 0.006,1.77907 0.29465,4.95126 0.64133,7.04932 0.5402,3.2692 1.18533,4.03671 4.51183,5.36771 13.19837,5.28094 17.28641,26.17186 7.28726,37.23972 -1.87852,2.0793 -3.12357,4.07245 -2.76679,4.42923 0.35678,0.35678 3.16119,0.65693 6.23203,0.66701 3.07083,0.0101 10.21995,0.6774 15.88692,1.48295 54.625,7.76481 91.37072,32.37459 116.17848,77.80846 3.27616,6.00008 4.64123,7.66247 5.8911,7.17424 1.44742,-0.56539 19.25112,-5.47514 19.87683,-5.48145 0.91488,-0.009 -0.92569,6.98118 -10.30735,39.14699 -16.69327,57.2343 -15.66365,51.14556 -14.34844,84.85049 1.52814,39.16196 1.53791,120.24221 0.0172,142.5 -2.31449,83.06352 -44.83722,163.49419 -119.11138,177.99587 -13.09599,2.37148 -51.85973,2.96586 -64.81134,0.99377 z m 66.11113,-7.42504 c 132.82098,-43.46673 113.84942,-178.98235 110.94703,-337.54243 -0.77354,-3.97782 -0.77354,-3.97782 -10.26018,-6.21697 -13.52087,-3.19136 -43.01793,-8.06461 -59.98664,-9.91047 -19.52502,-2.12394 -90.70124,-3.04552 -114.76846,-1.486 -21.68578,1.4052 -48.26057,4.31504 -70.23154,7.69011 -17.56712,2.69856 -39.74594,6.80905 -40.41533,7.49033 -14.58445,118.51558 -14.33928,319.12023 119.41533,340.84297 4.125,0.58386 8.625,1.25544 10,1.49242 1.375,0.23697 11.95,0.28802 23.5,0.11344 16.53406,-0.24991 23.29672,-0.77591 31.79979,-2.4734 z M -601.79758,430.82176 c 31.47264,-6.46244 86.30816,-12.65985 129.36008,-14.62005 16.02973,-0.72984 58.04705,0.86108 81.24435,3.07621 20.25149,1.93383 47.04151,5.8125 64.5506,9.34567 7.58722,1.53103 13.9448,2.52188 14.12795,2.2019 1.18121,-2.06365 4.63184,-21.41682 3.93493,-22.06944 -1.20943,-1.1326 -26.32749,-5.58419 -47.75339,-8.46318 -76.61722,-10.29504 -139.24789,-10.01697 -214.84632,0.95386 -20.71636,3.00636 -43.9579,7.33944 -45.04044,8.39721 -0.60871,0.59477 4.1513,23.09977 4.88581,23.09977 0.097,0 4.38839,-0.86488 9.53643,-1.92195 z m 2.86008,-29.41965 c 27.30107,-5.04981 65.47286,-9.42087 102.5,-11.7373 48.49578,-3.03392 122.10389,2.295 176.29099,12.76274 7.31004,1.41213 13.54984,2.30866 13.86622,1.99228 0.5648,-0.5648 8.67659,-28.10297 13.71145,-46.54808 2.55821,-9.37196 2.55821,-9.37196 -1.20327,-8.77048 -2.06881,0.33082 -6.88986,1.89209 -10.71343,3.46949 -7.37832,3.04391 -7.60732,3.41748 -5.92938,9.67295 0.80471,3 0.80471,3 -3.41121,-0.79463 -9.79841,-8.81925 -18.62364,-7.21208 -19.84388,3.61379 -0.86054,7.63475 2.78402,15.10476 8.91681,18.27614 3.0077,1.55535 3.0077,1.55535 2.32332,-1.56062 -1.01318,-4.61298 1.54859,-8.03468 6.01543,-8.03468 7.09814,0 10.06756,7.91264 5.01526,13.36416 -6.95351,7.50297 -18.88343,5.73097 -27.52705,-4.0887 -2.20619,-2.50637 -4.01126,-4.91439 -4.01126,-5.35115 0,-0.43676 -0.45144,-1.9815 -1.00321,-3.43275 -1.0032,-2.63863 -1.0032,-2.63863 -4.25,1.60873 -8.04474,10.52391 -24.45292,12.17003 -29.22986,2.93244 -2.04605,-3.95662 -1.90964,-6.26376 0.55565,-9.39787 3.78322,-4.80958 9.92742,-2.32148 9.92742,4.02013 0,1.83975 0.24735,3.34501 0.54966,3.34501 1.72689,0 6.57802,-3.38139 9.3019,-6.48371 2.54758,-2.90154 3.14844,-4.4569 3.14844,-8.14996 0,-5.3409 -2.10639,-10.32717 -5.17111,-12.24112 -2.87708,-1.79676 -8.93908,-1.63671 -12.75538,0.33678 -4.06077,2.0999 -3.87665,1.11919 0.8401,-4.47459 3.91362,-4.64131 3.91362,-4.64131 0.39469,-9.06436 -1.93541,-2.43267 -4.36317,-5.48559 -5.39503,-6.78427 -1.8761,-2.36123 -1.8761,-2.36123 -9.25354,2.94472 -7.37744,5.30595 -7.37744,5.30595 -5.01859,10.63974 3.28001,7.41668 2.96229,8.2719 -1.46646,3.94734 -6.71591,-6.55791 -15.43076,-6.97436 -20.15904,-0.96332 -4.16433,5.29409 -1.67744,16.03376 5.01724,21.66696 3.8941,3.27667 5.18155,3.32832 4.39039,0.17611 -0.45603,-1.817 0.0438,-3.10834 1.9355,-5 3.19118,-3.19118 5.06931,-3.21315 8.18668,-0.0958 3.65151,3.6515 3.28009,7.91991 -1.06746,12.26746 -3.33336,3.33336 -3.81303,3.49787 -8.95552,3.07141 -7.08749,-0.58775 -13.98668,-4.81112 -18.27247,-11.18558 -1.7875,-2.65863 -3.25,-4.18901 -3.25,-3.40085 0,2.47982 -7.21398,9.98546 -11.44419,11.90688 -5.99221,2.72174 -13.09939,2.47163 -17.13022,-0.60283 -7.82387,-5.96753 -5.94897,-16.51101 2.93609,-16.51101 3.48579,0 6.96762,4.60352 6.23863,8.24844 -0.55383,2.76915 -0.54483,2.77423 2.30273,1.3017 13.09656,-6.77249 12.61277,-27.46411 -0.68383,-29.24756 -3.2031,-0.42963 -5.07267,0.003 -8.65258,2.00429 -2.51165,1.40379 -4.56663,2.16848 -4.56663,1.69933 0,-0.46915 1.64165,-3.00369 3.64811,-5.6323 3.64812,-4.77928 3.64812,-4.77928 -3.25,-11.04973 -3.79396,-3.44875 -7.34811,-6.26171 -7.89811,-6.25103 -0.55,0.0107 -4.14054,2.90392 -7.97898,6.42942 -6.97898,6.40999 -6.97898,6.40999 -4.37219,9.20372 2.46919,2.64625 4.85117,6.45547 4.85117,7.75792 0,0.32762 -1.28092,-0.35135 -2.84649,-1.50883 -3.44904,-2.54998 -9.66266,-3.50746 -13.40305,-2.06533 -4.09838,1.58016 -6.7423,6.63921 -6.74672,12.90962 -0.004,6.29116 1.81533,10.22521 6.24521,13.50112 5.33116,3.9424 5.6256,3.99157 5.5384,0.9248 -0.22869,-8.04343 8.54346,-11.22892 12.84471,-4.66438 3.44249,5.2539 -2.37582,14.5497 -10.00227,15.98043 -5.7216,1.07338 -11.64887,-1.23159 -16.77594,-6.52376 -2.57998,-2.66305 -4.95631,-6.2079 -5.3436,-7.97121 -0.69745,-3.17545 -0.69745,-3.17545 -2.68871,0.84925 -3.84996,7.78146 -12.99021,14.10409 -20.38942,14.10409 -5.11229,0 -10.43212,-5.30345 -10.43212,-10.4 0,-3.96166 2.78892,-7.6 5.82569,-7.6 2.92904,0 6.50576,4.48581 5.93932,7.44893 -0.58836,3.07783 -0.39557,3.1039 3.796,0.51336 6.05335,-3.74117 9.30048,-14.78266 6.29028,-21.38932 -0.71327,-1.56546 -2.79813,-3.15106 -5.5,-4.18291 -4.06845,-1.55376 -4.64077,-1.55122 -8.80469,0.039 -2.44937,0.93543 -5.82437,3.26222 -7.5,5.17066 -3.70053,4.21466 -3.86885,2.70865 -0.50495,-4.51783 1.38717,-2.97996 2.17027,-5.7334 1.74023,-6.11875 -0.43003,-0.38535 -3.70688,-2.8095 -7.28188,-5.387 -6.5,-4.68636 -6.5,-4.68636 -10.70574,0.11875 -7.01728,8.01733 -7.12599,8.51551 -2.92821,13.41966 4.40438,5.14553 4.60481,6.43887 0.68361,4.41114 -4.54179,-2.34865 -11.27448,-1.994 -13.75038,0.72432 -4.59213,5.04174 -5.61969,11.29593 -2.7634,16.81938 1.55302,3.00321 8.7964,8.93061 10.91336,8.93061 0.7165,0 1.00074,-1.27135 0.75494,-3.37674 -0.66521,-5.69803 5.71149,-8.70759 9.79582,-4.62326 4.32719,4.32719 1.14809,12.80593 -5.64179,15.0468 -7.929,2.6168 -17.53329,-1.16444 -23.34878,-9.19248 -2.53104,-3.49399 -3.06328,-3.82701 -3.56531,-2.23072 -2.53718,8.06743 -7.45659,14.23584 -13.80379,17.30847 -5.14194,2.48917 -9.65625,2.62874 -14.2664,0.44108 -7.01349,-3.32812 -9.34874,-9.64216 -5.19962,-14.0587 4.8946,-5.21005 12.86957,-1.28387 11.48223,5.65285 -0.49529,2.47646 -0.31628,2.84792 1.12734,2.3393 5.11676,-1.80274 10.21612,-9.84779 10.21612,-16.11754 0,-13.64499 -9.60516,-16.32748 -20.86502,-5.82711 -3.26783,3.04741 -3.34176,3.06584 -2.55977,0.63805 2.07856,-6.45309 1.5293,-7.2585 -7.37312,-10.81169 -4.56384,-1.82155 -9.31746,-3.1716 -10.56359,-3.00011 -2.2657,0.3118 -2.2657,0.3118 2.38788,16.8118 11.58966,41.09302 10.91349,39.27461 14.38384,38.68257 1.69938,-0.28991 9.16478,-1.65078 16.58978,-3.02417 z m 3.91405,-13.61455 c 7.24661,-3.69695 11.86351,-11.17262 12.99647,-21.04385 0.63125,-5.5 0.63125,-5.5 3.20053,0 1.4131,3.025 3.7767,6.92744 5.25245,8.67209 3.26786,3.86332 10.12427,7.32791 14.50188,7.32791 6.97332,0 12.10105,-5.32789 10.12638,-10.52166 -2.35207,-6.18642 -7.60354,-3.07641 -6.44122,3.81459 0.63408,3.75927 0.6145,3.78687 -2.20539,3.10966 -7.12776,-1.71175 -13.38806,-7.47606 -15.39526,-14.17552 -1.5705,-5.24185 0.2509,-11.62786 4.53971,-15.91667 2.71455,-2.71455 4.07975,-3.3104 7.58471,-3.3104 4.27432,0 4.27432,0 1.95064,-2.47345 -1.27803,-1.36039 -3.8284,-3.49789 -5.66749,-4.75 -3.92096,-2.6695 -4.0428,-3.51286 -1.2877,-8.91329 1.13837,-2.23139 1.92587,-4.19815 1.75,-4.37058 -0.17587,-0.17242 -3.74011,1.2538 -7.92053,3.16939 -7.2766,3.33434 -7.72161,3.73569 -10.43387,9.41041 -2.59546,5.43032 -3.1043,5.92752 -6.06632,5.92752 -4.56238,0 -11.53457,3.22421 -16.31871,7.54639 -5.07591,4.58578 -5.2114,5.81467 -0.36889,3.34581 4.69829,-2.39532 7.96167,-2.38894 11.91765,0.0233 5.58599,3.40618 6.85397,15.47229 2.39623,22.80246 -2.41847,3.97685 -7.89315,8.1056 -11.77828,8.88262 -3.08594,0.61719 -3.08594,0.61719 -2.5361,-3.48213 0.86465,-6.44643 -3.25885,-9.48547 -7.10452,-5.23605 -2.28119,2.52069 -1.23908,6.40746 2.57945,9.62054 3.68274,3.09882 9.3092,3.30545 14.72818,0.5409 z m 280.68595,-1.44385 c 3.69835,-3.69835 4.28116,-6.57598 1.82857,-9.02857 -3.90037,-3.90037 -8.02722,-0.71664 -7.04369,5.43399 0.51451,3.21762 0.33695,3.99458 -0.9129,3.99458 -2.87531,0 -9.33747,-3.95709 -11.85734,-7.26082 -5.96735,-7.82359 -5.14767,-21.86082 1.47655,-25.28634 3.801,-1.96557 6.75075,-1.82765 11.37915,0.53204 2.14128,1.09168 4.04563,1.83248 4.2319,1.64621 0.18627,-0.18626 -1.7224,-2.23849 -4.24148,-4.56049 -5.29884,-4.8843 -11.58741,-8.01724 -16.1556,-8.04864 -2.88449,-0.0198 -3.5159,-0.62228 -6.5,-6.20181 -3.18708,-5.95907 -3.58203,-6.29699 -11.05516,-9.4588 -4.2625,-1.80342 -7.75,-3.05752 -7.75,-2.7869 0,0.27062 1.10418,2.67104 2.45374,5.33426 2.45374,4.84221 2.45374,4.84221 -3.75,9.7063 -6.20374,4.86408 -6.20374,4.86408 -1.48961,5.41652 5.68258,0.66594 9.06778,3.52132 11.39304,9.60993 3.822,10.00776 -3.06163,21.02663 -14.84006,23.755 -2.71375,0.62862 -2.72876,0.60291 -2.14303,-3.67048 0.45615,-3.32798 0.20658,-4.62163 -1.10093,-5.70677 -2.14146,-1.77725 -4.8809,-0.27629 -5.35603,2.93463 -1.25631,8.49007 7.60211,12.65549 17.33288,8.1503 5.17817,-2.39742 8.69462,-6.22106 12.3036,-13.37843 2.91158,-5.77429 2.91158,-5.77429 3.47012,-0.36252 1.31485,12.73965 10.46178,22.5543 21.07628,22.61485 3.06122,0.0175 4.54658,-0.67462 7.25,-3.37804 z m -201.74195,-11.52758 c 5.24304,-2.6748 10.41251,-8.72563 12.02264,-14.07242 0.74532,-2.475 1.55372,-5.16876 1.79645,-5.98613 0.24272,-0.81737 1.46465,1.55471 2.71539,5.27129 3.46239,10.28849 9.72097,15.71484 18.12501,15.71484 4.24362,0 9.01431,-2.25673 10.45282,-4.94461 1.50532,-2.81273 1.2581,-6.68408 -0.54179,-8.48396 -3.6373,-3.6373 -7.91972,-0.26989 -7.13138,5.60765 0.44255,3.29941 0.24573,3.82092 -1.44201,3.82092 -4.48933,0 -11.06428,-5.40194 -14.24102,-11.70034 -1.97469,-3.91514 -2.08908,-11.2493 -0.24304,-15.58178 2.10701,-4.94493 5.80702,-7.76611 11.19639,-8.53703 4.79708,-0.68619 4.79708,-0.68619 -0.88521,-4.59974 -3.12527,-2.15245 -5.6823,-4.20707 -5.6823,-4.56583 0,-0.35875 0.68208,-2.94908 1.51572,-5.75628 0.83365,-2.80719 1.91126,-7.22116 2.39468,-9.8088 0.87896,-4.70481 0.87896,-4.70481 -5.76572,-4.06662 -9.26778,0.89012 -20.69859,2.72269 -21.99999,3.527 -1.0725,0.66284 -3.66969,10.21872 -4.64495,17.09021 -0.38631,2.72186 -1.53428,4.27938 -5.15939,7 -2.5644,1.92457 -5.37754,4.61053 -6.25144,5.96881 -1.58891,2.4696 -1.58891,2.4696 0.8836,0.75 3.23549,-2.25025 11.30835,-2.25748 15.10704,-0.0135 6.21658,3.67223 7.60376,12.52329 3.31237,21.13499 -2.80873,5.63634 -8.25438,10.15891 -12.23246,10.15891 -2.0562,0 -2.28888,-0.3482 -1.72747,-2.58504 0.97436,-3.88217 -0.19598,-6.41496 -2.96419,-6.41496 -4.76833,0 -5.65906,6.80874 -1.44236,11.02544 2.54457,2.54457 7.89851,2.56417 12.83261,0.047 z m 121.38173,-1.12021 c 2.61522,-3.22965 2.33823,-8.8018 -0.48978,-9.85303 -3.80293,-1.41364 -4.96437,-0.26237 -4.58225,4.54214 0.39175,4.92562 -0.93791,5.56313 -6.06897,2.90976 -10.73281,-5.55015 -14.23453,-20.61533 -6.57268,-28.27718 2.88678,-2.88678 3.90976,-3.2739 8.65139,-3.2739 3.35232,0 6.25398,0.61391 7.70483,1.63013 2.21241,1.54963 2.27703,1.53729 1.30856,-0.25 -1.28494,-2.37134 -6.02733,-6.7952 -8.82211,-8.22956 -1.63248,-0.83784 -2.29594,-2.41212 -2.83507,-6.72715 -1.18932,-9.51901 -3.31376,-15.33406 -5.81945,-15.92906 -3.68837,-0.87585 -22.05101,-3.48216 -24.57779,-3.48846 -2.21892,-0.006 -2.32408,0.25729 -1.71856,4.29517 0.35474,2.36558 1.4927,7.10089 2.5288,10.5229 1.88382,6.22184 1.88382,6.22184 -1.78144,8.09253 -2.01589,1.02887 -4.5225,2.81857 -5.57025,3.97709 -1.89296,2.09312 -1.88761,2.10641 0.84887,2.10641 11.10378,0 17.27573,13.68487 11.52739,25.55934 -2.41726,4.9934 -9.48375,10.44066 -13.54421,10.44066 -1.99122,0 -2.13752,-0.38916 -1.67822,-4.46403 0.45887,-4.07111 0.27237,-4.56918 -2.11878,-5.65866 -2.21356,-1.00857 -2.93407,-0.91216 -4.626,0.61901 -4.74673,4.29574 -0.7019,12.19801 6.75562,13.19827 9.40711,1.26176 18.75946,-5.84432 21.93652,-16.66774 1.62233,-5.52685 1.62233,-5.52685 2.80511,-0.34239 1.8383,8.05778 5.7389,12.99907 12.99869,16.46676 5.06716,2.42038 11.24557,1.88121 13.73978,-1.19901 z m 82.39688,-26.23683 c -0.74869,-1.76846 -3.59739,-7.08566 -6.33044,-11.81601 -16.08179,-27.83429 -38.66061,-47.77594 -66.08674,-58.36792 -22.33107,-8.62427 -43.12835,-11.84898 -76.71948,-11.89569 -25.8357,-0.0359 -37.26207,0.99919 -55.46018,5.02416 -41.87586,9.26189 -71.33133,31.8592 -92.01074,70.58774 -4.5592,8.53849 -4.99101,9.82972 -3.48104,10.40915 0.94809,0.36382 2.27171,0.25237 2.94138,-0.24766 0.66966,-0.50003 3.40403,-2.55615 6.07638,-4.56916 2.67235,-2.013 6.59646,-4.23348 8.72026,-4.9344 2.93462,-0.96851 4.35387,-2.25021 5.91306,-5.33999 1.1284,-2.23608 4.39757,-7.68215 7.26484,-12.10238 15.37717,-23.70571 35.7938,-39.86527 55.53604,-43.95621 3.5,-0.72526 3.5,-0.72526 -0.5,2.24264 -10.11854,7.50772 -21.371,21.67185 -30.78456,38.75035 -6.76249,12.26879 -7.44332,14.28346 -5.12727,15.17221 1.28697,0.49385 3.53043,-1.29548 8.81895,-7.03379 7.09288,-7.69615 7.09288,-7.69615 15.94272,-1.10265 8.47766,6.3162 8.92976,6.52117 10.75,4.87387 1.10922,-1.00382 1.90016,-3.04539 1.90016,-4.90467 0,-5.16481 3.71503,-18.17974 7.23261,-25.33813 3.91606,-7.96932 13.45763,-18.39325 20.98764,-22.9285 5.43604,-3.27407 13.40444,-6.41451 19.60543,-7.72673 3.32568,-0.70377 3.32568,-0.70377 2.677,4.14231 -1.40499,10.49611 -4.71531,28.40035 -7.24942,39.2093 -2.58534,11.02743 -2.6089,11.40356 -0.79735,12.7282 1.68364,1.2311 2.61097,0.7107 9.4554,-5.30628 4.17378,-3.66919 8.33378,-7.29073 9.24443,-8.04788 1.46421,-1.21739 2.71172,-0.42877 10.78411,6.81718 8.61837,7.73604 9.2301,8.10173 10.94956,6.54564 1.75718,-1.59022 1.72274,-2.05181 -0.97962,-13.12995 -2.40808,-9.87172 -5.43821,-26.43222 -7.26774,-39.72013 -0.28397,-2.0625 -0.18915,-3.75 0.21072,-3.75 2.98461,0 13.6653,3.68867 19.38771,6.69571 16.41464,8.62565 27.744,26.01468 30.74207,47.18491 1.47683,10.42832 2.30506,10.59547 13.00926,2.62548 5.01721,-3.73565 9.4652,-6.39024 9.88441,-5.89909 12.14111,14.22432 13.47913,15.46621 15.01198,13.93336 1.37649,-1.37648 1.24642,-2.11768 -1.27866,-7.28637 -9.17239,-18.77536 -22.5795,-37.05504 -32.82838,-44.75926 -6.20588,-4.66504 -6.20588,-4.66504 -2.24352,-3.94579 21.14732,3.83869 47.6398,27.42111 62.3717,55.52049 1.98411,3.78448 3.21388,4.86005 7.1587,6.26113 2.61968,0.93043 6.93855,3.66481 9.5975,6.07642 3.78704,3.43475 5.21338,4.18314 6.58341,3.45425 1.56476,-0.83249 1.60559,-1.26912 0.38771,-4.14586 z m -41.68697,-28.78947 c -5.25919,-7.7445 -15.32628,-18.42706 -21.58601,-22.90574 -4.86368,-3.47982 -4.86368,-3.47982 -1.7335,0.5 1.7216,2.18891 5.8853,8.25483 9.25267,13.47983 5.59644,8.68376 6.6163,9.7297 11.86982,12.17341 3.16103,1.47037 5.8766,2.70787 6.03459,2.75 0.15799,0.0421 -1.56891,-2.65675 -3.83757,-5.9975 z m -213.42172,2.7035 c 4.43272,-1.66768 5.43306,-2.6439 9.22236,-9 2.33769,-3.92117 6.37422,-10.04307 8.97009,-13.60422 4.33156,-5.94226 4.46772,-6.29535 1.65551,-4.29287 -5.7723,4.11023 -13.29014,11.37629 -18.18017,17.57129 -5.91837,7.49775 -8.98021,12.15061 -7.6348,11.60206 0.54724,-0.22312 3.23239,-1.24743 5.96701,-2.27626 z m 71.24249,-17.84626 c 11.27045,-1.22138 11.27045,-1.22138 12.19214,-4.75226 0.78944,-3.02428 4.0374,-19.59391 4.0374,-20.597 0,-0.8963 -8.93463,2.95737 -13.19505,5.69127 -5.6956,3.65486 -13.37352,11.86477 -16.7068,17.86439 -2.40186,4.32313 -2.40186,4.32313 0,3.66905 1.32102,-0.35974 7.47356,-1.2037 13.67231,-1.87545 z m 83.22954,1.66881 c 0,-1.77656 -7.51841,-11.71665 -12.16019,-16.077 -5.60173,-5.26209 -9.28747,-7.56316 -15.7879,-9.85665 -3.72072,-1.31274 -3.72072,-1.31274 -2.91893,3.83447 0.44099,2.83097 1.52217,8.40972 2.40262,12.39722 1.60082,7.25 1.60082,7.25 5.78261,7.32538 3.24626,0.0585 14.4906,1.49064 21.93179,2.79332 0.4125,0.0722 0.75,-0.11532 0.75,-0.41674 z m -40.38391,-48.36508 c 3.96214,-1.79928 9.38391,-7.5373 9.38391,-9.93127 0,-0.8325 -5.17258,-1.15561 -18.5,-1.15561 -10.175,0 -18.49703,0.3375 -18.49341,0.75 0.004,0.4125 0.83887,2.01228 1.85611,3.55507 5.07097,7.69085 16.89502,10.80456 25.75339,6.78181 z m 10.58241,-14.33688 c 0.639,-4.25868 -1.12825,-12.04545 -3.57179,-15.7379 -3.42652,-5.17781 -8.59933,-7.46845 -16.78289,-7.43183 -11.69384,0.0523 -17.66917,6.20145 -18.60182,19.14291 -0.45235,6.27682 -0.45235,6.27682 19.08327,6.27682 19.49247,0 19.53637,-0.005 19.87323,-2.25 z m -16.1985,-34.829 c 0,-8.07901 0,-8.07901 7.50233,-7.75 7.50233,0.329 7.50233,0.329 7.5,-4.00632 -0.002,-4.33532 -0.002,-4.33532 -7.50233,-3.63251 -7.5,0.7028 -7.5,0.7028 -7.5,-6.91468 0,-7.61749 0,-7.61749 -3.5,-7.61749 -3.5,0 -3.5,0 -3.5,7.63793 0,7.63793 0,7.63793 -7.5,6.9583 -7.5,-0.67963 -7.5,-0.67963 -7.50233,3.61207 -0.002,4.2917 -0.002,4.2917 7.5,3.9627 7.50233,-0.32901 7.50233,-0.32901 7.50233,7.75 0,8.079 0,8.079 3.5,8.079 3.5,0 3.5,0 3.5,-8.079 z"
         style="fill:#0d0a0d" />
    </g>
  </g>
</svg>
