<?xml version="1.0" encoding="UTF-8" standalone="no"?>
<svg
   xmlns:dc="http://purl.org/dc/elements/1.1/"
   xmlns:cc="http://creativecommons.org/ns#"
   xmlns:rdf="http://www.w3.org/1999/02/22-rdf-syntax-ns#"
   xmlns:svg="http://www.w3.org/2000/svg"
   xmlns="http://www.w3.org/2000/svg"
   xmlns:sodipodi="http://sodipodi.sourceforge.net/DTD/sodipodi-0.dtd"
   xmlns:inkscape="http://www.inkscape.org/namespaces/inkscape"
   id="svg4939"
   version="1.1"
   viewBox="0 0 24 24"
   height="24"
   width="24"
   sodipodi:docname="StarFilled.svg"
   inkscape:version="0.92.4 (5da689c313, 2019-01-14)">
  <sodipodi:namedview
     pagecolor="#ffffff"
     bordercolor="#666666"
     borderopacity="1"
     objecttolerance="10"
     gridtolerance="10"
     guidetolerance="10"
     inkscape:pageopacity="0"
     inkscape:pageshadow="2"
     inkscape:window-width="1920"
     inkscape:window-height="1016"
     id="namedview836"
     showgrid="false"
     inkscape:zoom="1.2291667"
     inkscape:cx="-265.48448"
     inkscape:cy="-73.659638"
     inkscape:window-x="0"
     inkscape:window-y="27"
     inkscape:window-maximized="1"
     inkscape:current-layer="svg4939" />
  <defs
     id="defs4933" />
  <metadata
     id="metadata4936">
    <rdf:RDF>
      <cc:Work
         rdf:about="">
        <dc:format>image/svg+xml</dc:format>
        <dc:type
           rdf:resource="http://purl.org/dc/dcmitype/StillImage" />
        <dc:title />
      </cc:Work>
    </rdf:RDF>
  </metadata>
  <path
     inkscape:connector-curvature="0"
     style="fill:#ffff00;fill-opacity:1;stroke:#000000;stroke-width:1.64561403;stroke-linecap:square;stroke-linejoin:miter;stroke-miterlimit:4;stroke-dasharray:none;stroke-dashoffset:0;stroke-opacity:1;paint-order:normal"
     id="path5326"
     d="m 17.28067,20.18855 c -0.262597,0.18931 -4.980209,-3.79661 -5.30393,-3.7978 -0.323721,-0.001 -5.0705667,3.94987 -5.3317618,3.75862 C 6.3837831,19.95813 8.7167934,14.2397 8.617892,13.93145 8.518991,13.62321 3.2944546,10.32963 3.3956239,10.02212 3.4967932,9.71462 9.6562852,10.16635 9.918882,9.97702 10.181479,9.78771 11.699383,3.80111 12.023104,3.8023 c 0.323722,0.001 1.797487,5.99881 2.058682,6.19006 0.261195,0.19124 6.423848,-0.21511 6.522749,0.0931 0.0989,0.30824 -5.149754,3.56324 -5.250923,3.87075 -0.101169,0.30751 2.189655,6.04297 1.927058,6.23229 z" />
</svg>
